<svg viewBox="0 0 24 24" width="24" height="24" fill="currentColor" xmlns="http://www.w3.org/2000/svg">
  <path fill-rule="evenodd" clip-rule="evenodd" d="M21.93 16.123a5.96 5.96 0 0 1-1.615 4.189 5.9 5.9 0 0 1-4.19 1.615c-1.651.094-6.6.094-8.25 0a5.96 5.96 0 0 1-4.19-1.615 5.92 5.92 0 0 1-1.615-4.189c-.093-1.651-.093-6.6 0-8.25a5.94 5.94 0 0 1 1.615-4.19 5.95 5.95 0 0 1 4.19-1.61c1.651-.094 6.6-.094 8.25 0a5.96 5.96 0 0 1 4.19 1.615 5.92 5.92 0 0 1 1.615 4.189c.093 1.651.093 6.595 0 8.246M20.2 12c0-1.455.12-4.578-.4-5.894a3.37 3.37 0 0 0-1.9-1.9c-1.312-.517-4.439-.4-5.894-.4s-4.578-.121-5.894.4a3.38 3.38 0 0 0-1.9 1.9c-.517 1.312-.4 4.439-.4 5.894s-.121 4.578.4 5.894a3.38 3.38 0 0 0 1.9 1.9c1.312.517 4.44.4 5.894.4s4.578.121 5.894-.4a3.38 3.38 0 0 0 1.9-1.9c.519-1.312.4-4.439.4-5.894m-3.07 0A5.127 5.127 0 1 1 12 6.873 5.12 5.12 0 0 1 17.129 12zm-1.794 0a3.333 3.333 0 1 0-6.664 0 3.333 3.333 0 0 0 6.663 0zm2-4.141a1.2 1.2 0 1 1 1.2-1.2 1.193 1.193 0 0 1-1.197 1.2z"/>
</svg>
