<svg
  xmlns="http://www.w3.org/2000/svg"
  viewBox="0 0 1000 268.675"
  width="1000"
  height="268.676"
  fill="currentColor"
>
  <path d="M665.344 0h-42.114v235.506c38.272 1.317 76.386 3.248 114.34 5.778v-41.493c-24.01-1.602-48.087-2.959-72.226-4.083V0zM999.997.022h-46.253l-30.481 70.671L895.851.022h-45.557l48.96 126.287-53.46 123.887c14.784 1.442 29.533 2.981 44.262 4.607l31.081-72.035 30.788 79.407c16.038 2.062 32.028 4.213 47.999 6.491l.061-.027-54.825-141.479L1000 .022zM478.696 233.448h42.112v-95.799h57.084v-41.493h-57.084V41.897h75.445V.031h-117.558v233.417zM321.445 41.89h44.071v194.026c14.013-.529 28.055-.965 42.111-1.333V41.887h44.072V0h-130.254v41.89zM177.477 247.979c38.812-3.527 77.804-6.434 116.972-8.689v-41.497c-25.026 1.446-49.983 3.158-74.865 5.115v-62.819c16.327-.163 37.824-.661 56.869-.424v-41.496c-15.214-.037-39.669.213-56.869.433V41.889h74.865V.024h-116.972v247.955zM94.865 152.057L40.022 0H0v268.675c14.01-1.994 28.046-3.904 42.111-5.736V116.843l48.765 140.095c15.339-1.779 30.705-3.464 46.1-5.048V0H94.865v152.057zM772.313 243.785c14.061 1.076 28.094 2.23 42.114 3.478V0h-42.114v243.785z"/>
</svg>
