<svg
  xmlns="http://www.w3.org/2000/svg"
  viewBox="0 0 24 24"
  width="24"
  height="24"
  fill="currentColor"
>
  <path d="M10.7 8.77a2 2 0 0 0 .3-1.06V4h.84c.88 0 1.59.55 1.77 1.31.21.92.39 1.92.39 2.69 0 .58-.1 1.2-.25 1.75L13.43 11h4.07a1.5 1.5 0 0 1 1.48 1.77l-.08.44.28.36a1.5 1.5 0 0 1 0 1.86l-.28.36.08.44a1.5 1.5 0 0 1-.58 1.47l-.4.3v.5c0 .83-.67 1.5-1.5 1.5h-3.88a9 9 0 0 1-2.84-.46l-1.5-.5A11 11 0 0 0 5 18.5v-4.75l2.04-.58a3 3 0 0 0 1.72-1.3zM10.5 2C9.67 2 9 2.67 9 3.5v4.21l-1.94 3.1a1 1 0 0 1-.57.44l-2.04.58A2 2 0 0 0 3 13.75v4.8c0 1.08.87 1.95 1.95 1.95q1.39 0 2.7.44l1.5.5a11 11 0 0 0 3.47.56h3.88a3.5 3.5 0 0 0 3.47-3.02A3.5 3.5 0 0 0 21 16.31a3.5 3.5 0 0 0 0-3.62v-.19A3.5 3.5 0 0 0 17.5 9h-1.57q.07-.48.07-1c0-1.01-.22-2.2-.45-3.15A3.8 3.8 0 0 0 11.84 2z" />
</svg>
