<svg viewBox="0 0 24 24" width="24" height="24" fill="currentColor" xmlns="http://www.w3.org/2000/svg">
  <path fill-rule="evenodd" clip-rule="evenodd" d="M20.77 8.2A12.65 12.65 0 0 1 8.03 20.96c-2.44 0-4.83-.7-6.88-2.01q.54.06 1.08.05a9 9 0 0 0 5.56-1.91 4.5 4.5 0 0 1-4.19-3.1q.42.06.85.06.6 0 1.17-.15a4.5 4.5 0 0 1-3.58-4.4v-.06a4.5 4.5 0 0 0 2.02.57 4.5 4.5 0 0 1-1.38-5.99c2.27 2.8 5.63 4.5 9.23 4.69a4.48 4.48 0 0 1 7.64-4.09q1.51-.3 2.84-1.08A4.5 4.5 0 0 1 20.42 6q1.34-.15 2.58-.69a10 10 0 0 1-2.25 2.32q.02.28.02.58"/>
</svg>
